
<svg xmlns="http://www.w3.org/2000/svg" width="76" height="26" fill="none"><path fill="#fff" d="M50.185 22.53c-.977-.31-2.111-.878-2.273-1.139-.089-.144.413-2.017.608-2.27.024-.03.596.235 1.27.592 1.085.572 1.383.638 2.557.565 1.138-.07 1.4-.165 1.821-.655.824-.957.587-2.148-.544-2.732-.771-.4-1.944-.4-3.25-.005-.562.17-1.086.311-1.165.313-.079 0 .002-.426.18-.95l.325-.951-.68-.662c-2.221-2.163-1.405-5.876 1.568-7.132.646-.274 1.396-.345 3.344-.32 1.788.024 2.77-.058 3.41-.283.492-.174.967-.316 1.055-.316.087 0 .015.57-.161 1.268l-.32 1.267-.802-.076c-.44-.042-.802-.055-.802-.028 0 .026.234.393.52.815.397.584.52 1.035.52 1.893 0 1.307-.344 2.082-1.272 2.863l-.664.558.765.63c1.015.837 1.38 1.6 1.38 2.883 0 1.262-.344 2-1.34 2.874-1.324 1.163-4.087 1.619-6.05.998Zm3.31-8.689c.56-.254 1.166-1.316 1.166-2.039 0-.7-.55-1.832-1.01-2.078-2.273-1.217-4.276 2.157-2.278 3.838.668.562 1.315.647 2.123.28ZM24.48 18.186c-.4-.133-1.212-.714-1.804-1.29-1.305-1.271-1.853-2.8-1.681-4.695.352-3.879 4.177-6.203 7.43-4.515l1.049.544V3.67h3.122v14.571h-2.914V17.01l-1.055.655c-1.188.739-2.864.95-4.148.521Zm3.404-2.73c2.804-1.171 1.986-5.543-1.037-5.54-3.07.003-3.854 4.272-1.016 5.534.805.358 1.21.359 2.053.007Zm34.478 2.799c-1.431-.435-2.716-1.522-3.46-2.928-.29-.545-.386-1.174-.385-2.498 0-1.509.082-1.923.55-2.81.648-1.23 1.197-1.765 2.454-2.396 1.105-.555 3.054-.628 4.179-.157 1.762.738 2.968 2.716 2.996 4.91l.016 1.318-3.59-.025c-2.96-.02-3.592.027-3.592.268 0 .552.837 1.357 1.787 1.72.801.306 1.137.328 2.157.138.665-.124 1.606-.417 2.091-.652l.884-.426-.132.658c-.436 2.18-.448 2.196-1.923 2.652-1.379.426-3.068.521-4.032.228Zm3.384-6.763c-.03-.066-.053-.268-.053-.448s-.273-.602-.608-.937c-.88-.88-1.904-.844-2.847.1-.39.388-.708.88-.708 1.092 0 .352.183.382 2.134.349 1.173-.02 2.11-.09 2.082-.156Zm-56.178-.484 3.153-7.234h2.449l2.989 6.864c1.644 3.775 3.043 7.034 3.11 7.243.11.347-.014.373-1.496.317l-1.616-.06-1.099-2.707-6.278-.114-1.15 2.923H6.414l3.153-7.233Zm6.167 1.448c0-.091-.414-1.192-.92-2.446-.834-2.07-.938-2.233-1.121-1.76-.111.286-.54 1.358-.954 2.382-.414 1.024-.752 1.89-.752 1.925 0 .035.843.064 1.873.064s1.874-.075 1.874-.165Zm17.906 5.63c.003-.087 1.39-3.342 3.084-7.234l3.08-7.078h2.459l6.314 14.483-3.315-.12-1.127-2.706-6.267-.115-1.147 2.925h-1.543c-.849 0-1.54-.07-1.538-.156Zm8.388-7.807c-.517-1.288-.965-2.369-.997-2.402-.032-.033-.468.946-.969 2.176-.5 1.23-.942 2.31-.98 2.402-.038.091.82.166 1.908.166h1.978l-.94-2.342Z"/></svg>