
<svg xmlns="http://www.w3.org/2000/svg" width="73" height="22" fill="none"><path fill="#fff" d="M71.04 20.376h.295c.129 0 .271.04.271.174 0 .152-.177.166-.339.166h-.228v.065h.279l.322.403h.102l-.32-.4c.153-.02.276-.09.276-.232 0-.158-.106-.241-.349-.241h-.402v.873h.092v-.808Z"/><path fill="#fff" d="M71.277 20.009c.502 0 .906.33.906.739s-.404.738-.906.738c-.501 0-.906-.33-.906-.738 0-.41.405-.74.906-.74l.003.066c-.468 0-.817.292-.817.674 0 .373.354.673.817.673.462 0 .811-.302.811-.675 0-.378-.346-.672-.811-.672l-.003-.065Zm-9.01.759h-4.27V.404h4.27v7.977L64.458.404h4.567l-2.88 8.17 3.034 12.194h-4.44l-1.553-8.822-.92 1.54v7.282Zm-13.171-3.427h-4.147v-5.355h3.27v-3.42h-3.27V3.584h4.147V.405H40.44v20.363h8.655v-3.427Zm8.528 0H53.66v-5.355h3.127v-3.42H53.66V3.584h3.965V.405h-8.276v20.363h8.276v-3.427ZM23.005.404l3.056 20.364h4.624L31.85 7.675l1.515 13.093h3.98L40.157.404h-3.52l-.87 11.441L34.282.405h-4.567l-1.19 11.26L27.062.405h-4.058Zm-4.231 16.015c0 .775-.43 1.404-.96 1.404h-.744V3.583h.744c.53 0 .96.628.96 1.404v11.432Zm.95-16.015h-7.073V13.27l-.005-.034v7.533h7.078c1.812 0 3.28-1.73 3.28-3.863V4.267c0-2.133-1.468-3.863-3.28-3.863ZM5.033 13.408l1.083-8.697 1.083 8.697H5.033ZM9.615.404H3.152L.16 20.781h3.863l.45-4.555H7.17l.45 4.555h4.78L9.615.404Z"/></svg>