<svg width="61" height="20" viewBox="0 0 61 20" fill="none" xmlns="http://www.w3.org/2000/svg">
<path fill-rule="evenodd" clip-rule="evenodd" d="M4.74701 18.1219C5.16664 18.2458 5.63872 18.3077 6.16325 18.3077C6.91508 18.3077 7.63193 18.1573 8.31381 17.8564C8.99575 17.5379 9.5902 17.1043 10.0972 16.5557C10.6218 15.9893 11.0326 15.3257 11.3299 14.5647C11.6446 13.8037 11.8019 12.9719 11.8019 12.0694C11.8019 11.1668 11.6446 10.335 11.3299 9.57401C11.0326 8.81306 10.6218 8.15824 10.0972 7.60963C9.5902 7.04329 8.99575 6.60975 8.31381 6.30886C7.63193 5.99031 6.91508 5.83103 6.16325 5.83103C5.65621 5.83103 5.21035 5.90182 4.82569 6.0434C4.45853 6.16729 4.13506 6.30002 3.85531 6.44161C3.54059 6.61855 3.26084 6.81322 3.01606 7.02562V1.45093H0V18.0313H2.22926L2.75379 16.9804C3.01606 17.2282 3.32204 17.4494 3.67173 17.644C3.96896 17.821 4.32739 17.9803 4.74701 18.1219ZM3.61927 14.485C3.04229 13.8834 2.75379 13.0781 2.75379 12.0694C2.75379 11.0606 3.04229 10.2554 3.61927 9.65367C4.19626 9.05193 4.91312 8.75112 5.76985 8.75112C6.62657 8.75112 7.34348 9.05193 7.92044 9.65367C8.49741 10.2554 8.78592 11.0606 8.78592 12.0694C8.78592 13.0781 8.49741 13.8834 7.92044 14.485C7.34348 15.0868 6.62657 15.3877 5.76985 15.3877C4.91312 15.3877 4.19626 15.0868 3.61927 14.485Z" fill="white"/>
<path d="M29.7179 2.97083H27.1177L27.1176 4.54476C27.1176 5.51396 26.6409 5.99855 25.6875 5.99855H24.9075V8.49764H26.7276L26.7277 13.9463C26.7277 14.616 26.823 15.2151 27.0137 15.7438C27.2217 16.2724 27.4991 16.7306 27.8458 17.1182C28.2098 17.5059 28.6345 17.8055 29.1198 18.017C29.6226 18.2108 30.1686 18.3077 30.758 18.3077C31.1394 18.3077 31.6073 18.2637 31.902 18.1756C32.058 18.1403 32.1967 18.0842 32.318 18.0314V15.4002C32.2487 15.4354 32.1793 15.4618 32.11 15.4794C32.0407 15.497 31.9209 15.5249 31.876 15.5323C31.8266 15.5405 31.6924 15.5376 31.5678 15.5348C31.509 15.5335 31.4525 15.5323 31.408 15.5323C30.8879 15.5323 30.4719 15.3825 30.1599 15.0829C29.8652 14.7658 29.7179 14.3428 29.7179 13.8142L29.7179 8.49764H32.318V5.73423H29.7179L29.7179 2.97083Z" fill="white"/>
<path d="M39.1496 5.59592C39.2901 5.59592 39.4131 5.60483 39.5185 5.62266C39.6239 5.64049 39.7205 5.65831 39.8083 5.67615L40.0718 5.72963V8.93877C39.984 8.92091 39.8874 8.90312 39.782 8.88526C39.6942 8.86746 39.5799 8.84961 39.4394 8.83175C39.3165 8.81395 39.176 8.80502 39.0179 8.80502C38.2801 8.80502 37.6741 9.05466 37.1998 9.55381C36.7431 10.0352 36.5147 10.677 36.5147 11.4793V18.0312H33.4847V5.72963H35.7243L36.2513 7.06679C36.462 6.79936 36.7168 6.55865 37.0154 6.34473C37.2613 6.1486 37.5599 5.97923 37.9112 5.8366C38.2801 5.67615 38.6929 5.59592 39.1496 5.59592Z" fill="white"/>
<path fill-rule="evenodd" clip-rule="evenodd" d="M24.2394 14.4713C24.082 14.9299 23.8372 15.3885 23.5051 15.8471C23.1903 16.3057 22.7969 16.7202 22.3248 17.0906C21.8703 17.4434 21.3457 17.7345 20.7513 17.9638C20.1743 18.1931 19.5448 18.3077 18.8629 18.3077C18.0412 18.3077 17.2631 18.1489 16.5288 17.8315C15.8119 17.4963 15.1737 17.0465 14.6142 16.4821C14.0722 15.9176 13.6351 15.265 13.3029 14.5242C12.9882 13.7657 12.8308 12.9543 12.8308 12.09C12.8308 11.2257 12.9882 10.4232 13.3029 9.68236C13.6351 8.92388 14.0722 8.26242 14.6142 7.69798C15.1737 7.13353 15.8119 6.69258 16.5288 6.37505C17.2631 6.03995 18.0412 5.87238 18.8629 5.87238C19.6497 5.87238 20.3928 6.0223 21.0922 6.32217C21.7916 6.62203 22.4035 7.04538 22.928 7.59216C23.4526 8.13893 23.8635 8.80039 24.1607 9.57654C24.4755 10.335 24.6328 11.1729 24.6328 12.09C24.6328 12.2311 24.624 12.3723 24.6065 12.5134L24.5541 12.8838C24.5366 13.0249 24.5192 13.1572 24.5017 13.2807H16.1091C16.249 13.8804 16.5463 14.3831 17.0008 14.7888C17.4555 15.1944 18.0761 15.3973 18.8629 15.3973C19.2651 15.3973 19.5973 15.3532 19.8595 15.265C20.1393 15.1768 20.3753 15.071 20.5677 14.9475C20.7775 14.8064 20.9523 14.6477 21.0922 14.4713H24.2394ZM18.8629 8.78279C18.0761 8.78279 17.4292 9.0121 16.9221 9.47066C16.4326 9.92928 16.1179 10.4937 15.978 11.164H21.7479C21.608 10.4937 21.2845 9.92928 20.7775 9.47066C20.2879 9.0121 19.6497 8.78279 18.8629 8.78279Z" fill="white"/>
<path fill-rule="evenodd" clip-rule="evenodd" d="M45.5665 13.1212L47.0719 2.89896C47.1296 2.50731 47.4297 2.19678 47.817 2.12802L59.7609 0.00744726C60.1321 -0.0584547 60.4184 0.331136 60.2472 0.669254L56.858 7.36369C56.6869 7.7018 56.9731 8.09139 57.3443 8.02547L60.4623 7.47192C60.9076 7.39282 61.1841 7.94384 60.8565 8.25795L48.9963 19.6293C48.6574 19.9542 48.1101 19.6167 48.2435 19.1651L49.8736 13.6471C49.9704 13.3194 49.6908 13.0037 49.3564 13.063L46.0976 13.6416C45.7906 13.6961 45.5208 13.4317 45.5665 13.1212ZM52.941 8.50569C53.5248 8.7362 53.8971 8.88319 53.7647 8.12755C53.5301 6.78734 52.2825 5.88858 50.9782 6.12015C49.6739 6.35171 48.8069 7.62587 49.0416 8.96608C49.1739 9.72178 49.4738 9.45542 49.9441 9.03777C50.3079 8.71473 50.7736 8.30114 51.3425 8.20013C51.9113 8.09918 52.4894 8.32742 52.941 8.50569Z" fill="white"/>
</svg>
