<svg width="85" height="21" viewBox="0 0 85 21" fill="none" xmlns="http://www.w3.org/2000/svg">
<g clip-path="url(#clip0_2_429)">
<path d="M34.8781 14.0139C33.5432 15.6452 31.6156 16.7024 29.5038 16.7024C25.8568 16.7024 22.976 14.11 22.976 10.7514C22.9906 9.94131 23.1672 9.14235 23.4956 8.40168C23.824 7.661 24.2974 6.99361 24.888 6.4389C25.4785 5.8842 26.1742 5.45342 26.9339 5.172C27.6937 4.89057 28.5021 4.7642 29.3115 4.80035C30.3563 4.7907 31.3884 5.02943 32.3228 5.49685C33.2571 5.96428 34.0671 6.64704 34.6859 7.48887L32.2831 9.21624C31.9773 8.69718 31.5431 8.26561 31.0222 7.96306C30.5013 7.66052 29.9112 7.49721 29.3089 7.48887C28.4225 7.50344 27.5768 7.86347 26.952 8.4923C26.3272 9.12114 25.9725 9.96907 25.9636 10.8555C25.9926 11.7537 26.3689 12.6056 27.0132 13.232C27.6575 13.8584 28.5197 14.2105 29.4183 14.2142C30.0266 14.2257 30.6277 14.082 31.165 13.7966C31.7022 13.5111 32.1578 13.0934 32.4886 12.5829L34.8781 14.0139Z" fill="black"/>
<path d="M39.1955 0.000183105H36.2213V16.4143H39.1955V0.000183105Z" fill="black"/>
<path d="M47.1622 14.11C47.8408 14.0755 48.4943 13.8426 49.0418 13.4401C49.5892 13.0377 50.0065 12.4834 50.2419 11.8461C50.4772 11.2087 50.5204 10.5163 50.3659 9.85463C50.2114 9.19298 49.8662 8.59121 49.3729 8.12395C48.8797 7.65669 48.2601 7.34448 47.5911 7.22604C46.922 7.10759 46.2329 7.18813 45.6092 7.45764C44.9856 7.72716 44.4547 8.17381 44.0824 8.74221C43.7102 9.31062 43.513 9.97577 43.5153 10.6552C43.5554 11.5919 43.9585 12.4763 44.6392 13.1211C45.3198 13.7659 46.2247 14.1205 47.1622 14.11ZM47.1622 4.70416C47.9853 4.65932 48.809 4.78064 49.5842 5.06089C50.3593 5.34115 51.0702 5.77461 51.6742 6.33543C52.8852 7.45633 53.6089 9.00708 53.69 10.6552C53.5939 12.2865 52.9211 13.9177 51.6742 14.975C51.0702 15.5358 50.3593 15.9693 49.5842 16.2495C48.809 16.5298 47.9853 16.6511 47.1622 16.6063C43.5153 16.6063 40.6345 14.0139 40.6345 10.6552C40.6345 7.29657 43.5153 4.71485 47.1622 4.71485" fill="black"/>
<path d="M53.1135 4.89648H56.6644L59.5451 11.0371L62.6154 4.89648H65.8806L59.5451 17.0842L53.1135 4.89648Z" fill="black"/>
<path d="M74.4217 9.02128C74.1965 8.47128 73.8098 8.00252 73.3126 7.67694C72.8154 7.35137 72.2312 7.18429 71.637 7.19779C71.0203 7.19288 70.4146 7.36118 69.8888 7.68355C69.363 8.00592 68.9382 8.46942 68.6628 9.02128H74.4217ZM76.3413 15.0684C75.1015 16.0941 73.534 16.639 71.9254 16.6036C68.2784 16.6036 65.3976 14.0112 65.3976 10.6525C65.4019 9.84787 65.5653 9.05199 65.8782 8.31064C66.1911 7.5693 66.6475 6.89713 67.2211 6.33277C67.8028 5.76804 68.4969 5.33212 69.2582 5.05336C70.0194 4.77461 70.8309 4.65927 71.6397 4.71485C72.4411 4.67941 73.2409 4.81514 73.9857 5.11299C74.7306 5.41084 75.4035 5.86398 75.9595 6.44223C76.5246 7.00362 76.9627 7.67977 77.2441 8.425C77.5256 9.17023 77.6438 9.96718 77.5907 10.762V11.5309H68.3745C68.6136 12.2846 69.0869 12.9423 69.7255 13.4085C70.3641 13.8747 71.1347 14.1251 71.9254 14.1233C72.4274 14.1191 72.9235 14.0152 73.385 13.8176C73.8466 13.6201 74.2643 13.3329 74.6139 12.9726L76.3413 15.0684ZM79.0298 9.98242C79.0298 7.19779 81.1416 4.99252 84.5002 4.99252V7.67836C83.7868 7.6857 83.1019 7.96003 82.5806 8.44727C82.3471 8.70378 82.1741 9.00938 82.0743 9.34158C81.9745 9.67379 81.9505 10.0242 82.004 10.3669V16.414H79.0298V9.98242Z" fill="black"/>
<path d="M9.34781 5.37447C9.34383 4.45241 9.06957 3.55175 8.55897 2.78396C8.04838 2.01617 7.32386 1.41495 6.47508 1.05469C5.62967 0.681271 4.69083 0.573221 3.7827 0.744837C2.87456 0.916454 2.0399 1.35965 1.38906 2.01583C0.738475 2.66964 0.291357 3.49801 0.101821 4.40067C-0.0877141 5.30333 -0.01154 6.24158 0.321128 7.10185C0.669187 7.95988 1.26724 8.69341 2.0376 9.20714C2.80796 9.72087 3.71501 9.99106 4.64091 9.98259H9.34514L9.34781 5.37447ZM10.6827 5.37447C10.6874 4.45151 10.9628 3.55021 11.4749 2.78232C11.987 2.01444 12.7132 1.41373 13.5635 1.05469C14.4089 0.681271 15.3477 0.573221 16.2558 0.744837C17.164 0.916454 17.9986 1.35965 18.6495 2.01583C19.3001 2.66964 19.7472 3.49801 19.9367 4.40067C20.1263 5.30333 20.0501 6.24158 19.7174 7.10185C19.3694 7.95988 18.7713 8.69341 18.0009 9.20714C17.2306 9.72087 16.3235 9.99106 15.3976 9.98259H10.6907L10.6827 5.37447ZM10.6827 15.9336C10.6874 16.8566 10.9628 17.7579 11.4749 18.5258C11.987 19.2937 12.7132 19.8944 13.5635 20.2534C14.4089 20.6268 15.3477 20.7349 16.2558 20.5633C17.164 20.3916 17.9986 19.9485 18.6495 19.2923C19.3001 18.6385 19.7472 17.8101 19.9367 16.9074C20.1263 16.0048 20.0501 15.0665 19.7174 14.2063C19.3694 13.3482 18.7713 12.6147 18.0009 12.101C17.2306 11.5872 16.3235 11.3171 15.3976 11.3255H10.6907L10.6827 15.9336ZM4.64358 19.2923C5.08589 19.2951 5.52435 19.21 5.93347 19.0419C6.34259 18.8738 6.71421 18.626 7.02673 18.313C7.33925 18 7.58643 17.628 7.75389 17.2186C7.92135 16.8092 8.00577 16.3706 8.00222 15.9283V12.5723H4.64358C3.75246 12.5723 2.89783 12.9263 2.26771 13.5564C1.6376 14.1866 1.2836 15.0412 1.2836 15.9323C1.2836 16.8234 1.6376 17.678 2.26771 18.3082C2.89783 18.9383 3.75246 19.2923 4.64358 19.2923ZM9.34781 15.9283C9.34487 16.8513 9.0711 17.7531 8.56044 18.5219C8.04978 19.2908 7.32469 19.8928 6.47508 20.2534C5.62967 20.6268 4.69083 20.7349 3.7827 20.5633C2.87456 20.3916 2.0399 19.9485 1.38906 19.2923C0.738475 18.6385 0.291357 17.8101 0.101821 16.9074C-0.0877141 16.0048 -0.01154 15.0665 0.321128 14.2063C0.669187 13.3482 1.26724 12.6147 2.0376 12.101C2.80796 11.5872 3.71501 11.3171 4.64091 11.3255H9.34514L9.34781 15.9283Z" fill="black"/>
</g>
<defs>
<clipPath id="clip0_2_429">
<rect width="84.5" height="20.6431" fill="white"/>
</clipPath>
</defs>
</svg>
