<svg width="112" height="17" viewBox="0 0 112 17" fill="none" xmlns="http://www.w3.org/2000/svg">
<g clip-path="url(#clip0_2_407)">
<path d="M57.9657 2.02553L57.7274 1.31064L57.9657 0.0595745L57.8466 0L54.57 2.74043V2.8L57.9657 2.02553Z" fill="white"/>
<path d="M7.92341 15.0127C7.62887 15.3147 7.27678 15.5547 6.888 15.7184C6.49916 15.8821 6.08148 15.9663 5.65957 15.9658C3.0383 15.9658 2.38298 13.6424 2.38298 10.902C2.38298 8.16159 2.97872 5.83819 5.6 5.83819C6.00576 5.82833 6.40866 5.90873 6.77952 6.07356C7.15043 6.23841 7.48011 6.48362 7.74468 6.79138L9.23404 9.05521H9.35319V5.65946H9.23404L7.86383 6.37436C7.23127 5.83797 6.4294 5.54254 5.6 5.54031C3.0383 5.54031 0 7.50627 0 10.9616C0 14.4169 2.97872 16.3829 5.65957 16.3829C6.53466 16.3767 7.37919 16.06 8.04255 15.4893L9.35319 16.2637H9.47234V12.6892H9.35319L7.92341 15.0127Z" fill="white"/>
<path d="M17.6936 5.48096C15.1915 5.48096 12.2128 7.62564 12.2128 10.9022C12.2128 14.1788 15.1915 16.3235 17.6936 16.3235C20.1957 16.3235 23.1745 14.1788 23.1745 10.9022C23.1745 7.62564 20.2553 5.48096 17.6936 5.48096ZM17.6936 15.9661C15.1915 15.9661 14.5362 13.7618 14.5362 10.9022C14.5362 8.04266 15.1915 5.8384 17.6936 5.8384C20.1957 5.8384 20.8511 8.04266 20.8511 10.9022C20.8511 13.7618 20.2553 15.9661 17.6936 15.9661Z" fill="white"/>
<path d="M32.6466 5.95745H33.9572V12.5106H33.8976L29.2508 5.65958H25.0806V5.95745H26.3317V15.8468H25.0806V16.1447H28.0593V15.8468H26.7487V5.95745L34.2551 16.3234H34.3742V5.95745H35.6253V5.65958H32.6466V5.95745Z" fill="white"/>
<path d="M42.5955 5.65958H37.8891V5.95745H39.2593V15.8468H37.8891V16.1447H42.5955C44.9189 16.1447 48.7913 15.1319 48.7913 10.8426C48.7913 6.55319 44.9189 5.65958 42.5955 5.65958ZM42.4764 15.8468H41.3444V5.95745H42.4764C45.2168 5.95745 46.4679 7.92341 46.4679 10.9021C46.4679 13.8809 45.2168 15.8468 42.4764 15.8468Z" fill="white"/>
<path d="M58.1442 15.8468H54.2123V10.6638H56.1783C56.7394 11.2622 57.2019 11.9459 57.5485 12.6894H57.6676V8.34043H57.5485C57.2019 9.08392 56.7394 9.76759 56.1783 10.366H54.2123V5.95745H57.7272C58.74 6.61277 59.6335 8.45958 59.6335 8.45958H59.7526V5.65958H50.757V5.95745H52.1272V15.8468H50.757V16.1447H60.0505V12.6298H59.9313C59.5008 13.7859 58.8983 14.8704 58.1442 15.8468Z" fill="white"/>
<path d="M74.2302 5.95745H75.5409V12.5106H75.4813L70.8345 5.65958H66.6047V5.95745H67.9154V15.8468H66.6047V16.1447H69.5834V15.8468H68.3324V5.95745L75.8388 16.3234H75.8983V5.95745H77.209V5.65958H74.2302V5.95745Z" fill="white"/>
<path d="M83.9402 5.30206H83.821L79.353 15.7872H78.1019V16.085H80.9019V15.7872H79.7104L81.3189 12.034H84.7147L86.4423 15.7872H85.0721V16.085H89.9572V15.7872H88.7061L83.9402 5.30206ZM81.4976 11.7957L83.0466 8.16164L84.6551 11.7957H81.4976Z" fill="white"/>
<path d="M97.3442 10.0084L95.2591 9.29354C94.2463 8.93609 93.4123 8.45949 93.4123 7.44673C93.4123 6.43396 94.3059 5.77864 95.6761 5.77864C96.0181 5.75008 96.3618 5.79959 96.6818 5.92344C97.0017 6.04726 97.2894 6.24225 97.5229 6.49354L99.0123 8.75737H99.1315V5.4212H99.0123L97.6421 6.13609C97.0976 5.66311 96.3976 5.40845 95.6761 5.4212C95.252 5.39707 94.8266 5.45891 94.4269 5.60301C94.0271 5.74712 93.6601 5.97053 93.3486 6.25983C93.037 6.54912 92.7874 6.89834 92.614 7.28653C92.4406 7.67478 92.3477 8.094 92.34 8.51907C92.34 10.0084 93.4123 10.7829 94.5442 11.1999L96.6293 11.9744C97.7612 12.3914 98.4761 12.868 98.4761 13.9403C98.4761 15.0127 97.7612 15.9063 95.974 15.9063C95.106 15.864 94.2732 15.5516 93.591 15.0127L92.0421 12.451H91.8634V16.085H92.0421L93.3527 15.3701C94.0754 15.9182 94.9487 16.2303 95.8549 16.2637C98.1187 16.2637 99.6081 14.6552 99.6081 12.868C99.6081 11.0808 98.6549 10.4255 97.3442 10.0084Z" fill="white"/>
<path d="M102.052 5.65958V8.93617H102.171C102.68 7.88117 103.299 6.88276 104.017 5.95745H105.864V15.8468H104.196V16.1447H109.617V15.8468H107.949V5.95745H109.796C110.515 6.88276 111.134 7.88117 111.643 8.93617H111.762V5.71915H102.052V5.65958Z" fill="white"/>
</g>
<defs>
<clipPath id="clip0_2_407">
<rect width="112" height="16.6809" fill="white"/>
</clipPath>
</defs>
</svg>
