<svg width="94" height="20" viewBox="0 0 94 20" fill="none" xmlns="http://www.w3.org/2000/svg">
<g clip-path="url(#clip0_2_502)">
<path d="M27.5277 0.000579834C25.0354 0.000579834 23.6135 1.4119 23.6135 3.74833C23.6135 6.01152 25.0359 7.47243 27.4793 7.47243C29.7284 7.47243 31.0408 6.31661 31.2598 4.47907H29.5579C29.3995 5.52588 28.7554 6.15858 27.4914 6.15858C26.0937 6.15858 25.267 5.34363 25.267 3.73679C25.267 2.12995 26.0084 1.315 27.4914 1.315C28.707 1.315 29.339 1.9229 29.5089 2.98182H31.1987C30.9798 1.20542 29.8252 0.000579834 27.5277 0.000579834Z" fill="#121212"/>
<path fill-rule="evenodd" clip-rule="evenodd" d="M35.6106 7.47243C37.9929 7.47243 39.4516 6.0242 39.4516 3.71199C39.4516 1.30289 37.8592 0.000579834 35.6106 0.000579834C33.2284 0.000579834 31.7696 1.35191 31.7696 3.76101C31.7696 6.17012 33.362 7.47243 35.6106 7.47243ZM35.6106 1.31442C36.9236 1.31442 37.7987 2.08093 37.7987 3.76044C37.7987 5.39092 36.9962 6.15743 35.6106 6.15743C34.2977 6.15743 33.4225 5.3419 33.4225 3.71141C33.4225 2.08093 34.2251 1.31442 35.6106 1.31442Z" fill="#121212"/>
<path d="M41.9675 0.121695H40.3388V7.35073H41.9675V2.44659C42.3933 1.63106 42.9763 1.25386 43.9125 1.25386C45.0792 1.25386 45.6749 1.78967 45.6749 2.9576V7.35016H47.3036V2.72574C47.3036 0.997785 46.3558 0 44.6782 0C43.1953 0 42.3806 0.767083 41.9675 2.04459V0.121695Z" fill="#121212"/>
<path d="M49.6864 5.13543H47.9845C48.1666 6.58366 49.2491 7.47244 51.583 7.47244C53.9168 7.47244 54.9014 6.51099 54.9014 5.22137C54.9014 4.12669 54.3789 3.37172 52.7986 3.18946L50.6226 2.93396C49.9785 2.86071 49.7475 2.60521 49.7475 2.17956C49.7475 1.66856 50.1364 1.27925 51.3762 1.27925C52.616 1.27925 53.0411 1.69278 53.1385 2.32548H54.8283C54.6214 0.950497 53.7336 0.00115967 51.4246 0.00115967C49.1155 0.00115967 48.1793 0.986832 48.1793 2.27646C48.1793 3.40805 48.775 4.08977 50.3674 4.27203L52.4581 4.51542C53.1512 4.60078 53.3332 4.89262 53.3332 5.28193C53.3332 5.80504 52.8591 6.19435 51.6193 6.19435C50.3795 6.19435 49.8201 5.85349 49.6864 5.13543Z" fill="#121212"/>
<path fill-rule="evenodd" clip-rule="evenodd" d="M55.5208 3.76044C55.5208 5.8777 56.8337 7.47185 59.2892 7.47185C61.3436 7.47185 62.6076 6.49829 62.9723 5.01373H61.3067C61.0636 5.73178 60.4437 6.15743 59.3376 6.15743C58.1098 6.15743 57.32 5.43937 57.1742 4.14975H63.0207C63.0328 1.61837 61.9387 0 59.3013 0C56.9305 0 55.5208 1.52148 55.5208 3.76044ZM61.3067 3.04238H57.1984C57.4053 1.88656 58.1588 1.27809 59.2892 1.27809C60.5774 1.27809 61.1973 1.97135 61.3067 3.04238Z" fill="#121212"/>
<path d="M65.4513 0.121695H63.8227V7.35073H65.4513V2.44659C65.8771 1.63106 66.4601 1.25386 67.3963 1.25386C68.563 1.25386 69.1587 1.78967 69.1587 2.9576V7.35016H70.7874V2.72574C70.7874 0.997785 69.8397 0 68.162 0C66.6791 0 65.8644 0.767083 65.4513 2.04459V0.121695Z" fill="#121212"/>
<path d="M73.1702 5.13543H71.4683C71.6504 6.58366 72.7329 7.47244 75.0668 7.47244C77.4007 7.47244 78.3852 6.51099 78.3852 5.22137C78.3852 4.12669 77.8627 3.37172 76.2824 3.18946L74.1064 2.93396C73.4623 2.86071 73.2313 2.60521 73.2313 2.17956C73.2313 1.66856 73.6202 1.27925 74.86 1.27925C76.0998 1.27925 76.525 1.69278 76.6223 2.32548H78.3121C78.1053 0.950497 77.2175 0.00115967 74.9084 0.00115967C72.5993 0.00115967 71.6631 0.986832 71.6631 2.27646C71.6631 3.40805 72.2588 4.08977 73.8512 4.27203L75.9419 4.51542C76.635 4.60078 76.817 4.89262 76.817 5.28193C76.817 5.80504 76.3429 6.19435 75.1031 6.19435C73.8633 6.19435 73.3039 5.85349 73.1702 5.13543Z" fill="#121212"/>
<path d="M83.1244 9.12715L86.1513 0.122284H84.4489L82.3582 6.44985L80.1822 0.122284H78.3835L80.7537 6.55944H82.3219L81.9209 7.7885H79.174V9.12715H83.1244Z" fill="#121212"/>
<path d="M87.8284 5.13601H86.1266C86.3087 6.58424 87.3912 7.47301 89.725 7.47301C92.0589 7.47301 93.0435 6.51157 93.0435 5.22194C93.0435 4.12726 92.5209 3.37229 90.9406 3.19004L88.7646 2.93454C88.1205 2.86129 87.8895 2.60579 87.8895 2.18014C87.8895 1.66914 88.2784 1.27983 89.5182 1.27983C90.758 1.27983 91.1832 1.69336 91.2805 2.32606H92.9703C92.7635 0.951077 91.8757 0.0017395 89.5666 0.0017395C87.2575 0.0017395 86.3213 0.987412 86.3213 2.27704C86.3213 3.40863 86.917 4.09035 88.5094 4.27261L90.6001 4.516C91.2932 4.60136 91.4753 4.89319 91.4753 5.2825C91.4753 5.80562 91.0011 6.19493 89.7613 6.19493C88.5215 6.19493 87.9621 5.85407 87.8284 5.13601Z" fill="#121212"/>
<path fill-rule="evenodd" clip-rule="evenodd" d="M19.856 10.0614V7.35062V0.122162H12.6355H9.9277C4.44477 0.122162 0 4.57182 0 10.0608C0 15.5498 4.44534 20 9.92828 20C15.4112 20 19.856 15.5503 19.856 10.0614ZM7.67162 5.09148L12.6355 0.122162V7.35062H19.856L14.891 12.3222H7.67162V5.09148Z" fill="#121212"/>
</g>
<defs>
<clipPath id="clip0_2_502">
<rect width="94" height="20" fill="white"/>
</clipPath>
</defs>
</svg>
