
<svg xmlns="http://www.w3.org/2000/svg" width="90" height="9" fill="none"><g clip-path="url(#a)"><path fill="#fff" d="M80.516 8.767c.714 0 1.337-.046 2.142-.046h4.148c.973 0 1.9.046 2.234.046.456 0 .653-.16.653-.537 0-.194-.045-.635-.045-1.108 0-.297.046-.674.046-.823 0-.342-.228-.548-.654-.548-.425 0-.653.206-.653.508 0 .127.06.388.06.617 0 .73-.425.982-1.61.982H84.74c-.988 0-1.182-.16-1.182-.902V5.15c0-.423.121-.526.623-.526h.517c.744 0 1.003.127 1.003.48 0 .103-.03.343-.03.411 0 .309.227.48.622.48.44 0 .653-.183.653-.548 0-.366-.09-.777-.09-1.2 0-.422.09-.833.09-1.187 0-.381-.212-.583-.653-.583-.395 0-.623.183-.623.491 0 .069.03.309.03.423 0 .343-.258.468-1.002.468h-.517c-.507 0-.623-.103-.623-.514V1.884c0-.697.182-.822 1.079-.822h2.082c1.094 0 1.504.228 1.504.845 0 .24-.06.508-.06.617 0 .32.242.514.653.514.41 0 .675-.194.675-.537 0-.149-.046-.537-.046-.822 0-.423.046-.811.046-.983 0-.38-.213-.537-.675-.537-.426 0-1.292.046-2.234.046h-3.924c-.805 0-1.428-.046-2.142-.046-.517 0-.76.183-.76.514 0 .286.243.469.653.469.169 0 .608-.069.844-.069.487 0 .676.217.676.777v5.23c0 .56-.183.777-.676.777-.243 0-.683-.069-.844-.069-.41 0-.653.183-.653.469 0 .331.243.514.76.514M75.44 1.896v4.763c0 .127-.015.171-.09.171-.077 0-.138-.034-.244-.171L70.699.694c-.303-.4-.531-.526-1.17-.526-.288 0-.76.046-1.215.046-.623 0-1.11-.057-1.657-.057-.516 0-.76.183-.76.514 0 .285.244.468.654.468.169 0 .593-.068.82-.068.548 0 .745.228.745.822v5.14c0 .594-.197.822-.744.822-.228 0-.654-.068-.82-.068-.411 0-.654.183-.654.468 0 .331.243.514.76.514.729 0 1.397-.057 2.203-.057.805 0 1.474.057 2.203.057.517 0 .775-.183.775-.514 0-.285-.243-.468-.675-.468-.17 0-.593.068-.82.068-.548 0-.745-.228-.745-.822V2.067c0-.137.015-.171.106-.171s.121.034.228.17l4.604 6.055c.41.548.578.662 1.322.662h.137c.638 0 .927-.217.927-.662V1.9c0-.582.212-.81.775-.81.182 0 .562.046.714.046a.725.725 0 0 0 .237-.027.596.596 0 0 0 .2-.098.42.42 0 0 0 .127-.153.321.321 0 0 0 .028-.18c0-.33-.258-.513-.76-.513-.698 0-1.29.057-2.05.057-.806 0-1.49-.057-2.234-.057-.507 0-.76.183-.76.514 0 .285.243.468.653.468.183 0 .593-.068.836-.068.532 0 .745.228.745.822M59.577 8.767c.744 0 1.428-.057 2.264-.057.835 0 1.534.057 2.279.057.506 0 .775-.183.775-.514a.353.353 0 0 0-.043-.188.47.47 0 0 0-.142-.158.658.658 0 0 0-.217-.1.786.786 0 0 0-.252-.023c-.212 0-.638.069-.88.069-.518 0-.7-.24-.7-.868V1.94c0-.634.182-.868.7-.868.242 0 .674.069.88.069a.786.786 0 0 0 .252-.023.658.658 0 0 0 .217-.1.47.47 0 0 0 .142-.158.353.353 0 0 0 .043-.188c0-.33-.274-.514-.775-.514-.745 0-1.444.058-2.28.058-.835 0-1.519-.058-2.264-.058-.516 0-.775.183-.775.514 0 .286.244.469.654.469.197 0 .638-.069.881-.069.517 0 .7.24.7.868v5.05c0 .634-.183.868-.7.868-.243 0-.684-.069-.881-.069-.41 0-.654.183-.654.469 0 .331.259.514.776.514m-10.713 0c.714 0 1.337-.046 2.142-.046h3.873c.973 0 1.9.046 2.234.046.471 0 .675-.16.675-.537 0-.217-.03-.72-.03-1.27 0-.33.03-.76.03-.936 0-.343-.243-.537-.675-.537a.819.819 0 0 0-.267.028.678.678 0 0 0-.227.109.479.479 0 0 0-.145.17.365.365 0 0 0-.036.2c0 .15.06.458.06.732 0 .845-.425 1.13-1.67 1.13H53.2c-1.079 0-1.307-.182-1.307-.993V1.953c0-.635.198-.88.76-.88.243 0 .684.069.881.069.41 0 .676-.183.676-.469 0-.33-.258-.514-.775-.514-.775 0-1.474.058-2.355.058-.82 0-1.49-.058-2.219-.058-.517 0-.76.183-.76.514 0 .286.244.469.654.469.169 0 .592-.069.82-.069.507 0 .7.217.7.777v5.23c0 .56-.198.777-.7.777-.228 0-.653-.069-.82-.069-.41 0-.654.183-.654.469 0 .331.244.514.76.514m-7.049-.868c-1.565 0-1.823-.137-1.823-.96v-5.14c0-.662.258-.777 1.808-.777 2.735 0 3.981 1.086 3.981 3.461 0 2.376-1.199 3.416-3.966 3.416Zm.107.88c3.677 0 5.515-1.451 5.515-4.353 0-2.878-1.793-4.283-5.485-4.283-.73 0-2.264.057-2.69.057-.844 0-1.534-.046-2.31-.046-.506 0-.76.172-.76.514 0 .286.244.469.654.469.17 0 .608-.069.844-.069.487 0 .676.217.676.777V7.08c0 .56-.182.777-.675.777-.244 0-.684-.069-.845-.069-.41 0-.653.183-.653.469 0 .342.258.514.76.514.775 0 1.459-.046 2.31-.046.425 0 1.96.057 2.659.057ZM28.034 4.762c-.273 0-.337-.092-.212-.343l1.322-2.844c.06-.127.09-.16.182-.16.091 0 .106.034.169.16l1.322 2.844c.121.254.06.343-.213.343h-2.57Zm5.547 2.17L30.648.84c-.273-.56-.456-.708-1.182-.708h-.197c-.745 0-.912.148-1.182.708l-2.948 6.092c-.35.73-.623.845-1.23.868-.411.023-.624.183-.624.48 0 .33.243.49.73.49.577 0 1.093-.045 1.762-.045.745 0 1.428.046 2.112.046.486 0 .745-.183.745-.514 0-.286-.243-.469-.654-.469-.152 0-.395.046-.699.046-.506 0-.76-.148-.76-.445.011-.161.058-.32.137-.469l.471-.993c.076-.172.198-.275.441-.275h3.47a.568.568 0 0 1 .302.072.35.35 0 0 1 .169.203l.47.993c.08.15.127.308.138.469 0 .297-.259.445-.775.445-.29 0-.517-.046-.676-.046a.787.787 0 0 0-.255.022.662.662 0 0 0-.22.099.47.47 0 0 0-.144.159.351.351 0 0 0-.043.19c0 .331.274.514.745.514.699 0 1.383-.046 2.173-.046.653 0 1.2.046 1.793.046.486 0 .73-.16.73-.491 0-.297-.213-.457-.624-.48-.623-.023-.896-.137-1.246-.868M13.018 8.767c.714 0 1.337-.046 2.143-.046h4.148c.973 0 1.9.046 2.234.046.456 0 .653-.16.653-.537 0-.194-.046-.635-.046-1.108 0-.297.046-.674.046-.823 0-.342-.228-.548-.653-.548-.426 0-.654.206-.654.508 0 .127.061.388.061.617 0 .73-.425.982-1.61.982h-2.098c-.987 0-1.181-.16-1.181-.902V5.15c0-.423.121-.526.623-.526h.516c.745 0 1.003.127 1.003.48 0 .103-.03.343-.03.411 0 .309.228.48.623.48.44 0 .653-.183.653-.548 0-.366-.091-.777-.091-1.2 0-.422.091-.833.091-1.187 0-.381-.213-.583-.653-.583-.395 0-.623.183-.623.491 0 .069.03.309.03.423 0 .343-.258.468-1.003.468h-.52c-.506 0-.623-.103-.623-.514V1.884c0-.697.183-.822 1.08-.822h2.08c1.095 0 1.505.228 1.505.845 0 .24-.06.508-.06.617 0 .32.242.514.653.514.41 0 .675-.194.675-.537 0-.149-.045-.537-.045-.822 0-.423.045-.811.045-.983 0-.38-.213-.537-.675-.537-.426 0-1.292.046-2.234.046h-3.92c-.802 0-1.429-.046-2.143-.046-.517 0-.76.183-.76.514 0 .286.244.469.654.469.169 0 .608-.069.844-.069.486 0 .675.217.675.777v5.23c0 .56-.182.777-.675.777-.243 0-.675-.069-.844-.069-.41 0-.654.183-.654.469 0 .331.244.509.76.509Zm-7.05-.863c-1.566 0-1.824-.137-1.824-.96v-5.14c0-.662.253-.779 1.808-.779 2.736 0 3.982 1.085 3.982 3.46 0 2.377-1.2 3.419-3.966 3.419Zm.106.88c3.677 0 5.516-1.451 5.516-4.353C11.59 1.553 9.8.148 6.104.148c-.73 0-2.264.057-2.69.057C2.565.205 1.88.16 1.106.16c-.501 0-.76.172-.76.514 0 .286.243.469.654.469.169 0 .608-.069.844-.069.486 0 .675.217.675.777V7.08c0 .56-.182.777-.675.777-.243 0-.675-.069-.844-.069-.41 0-.654.183-.654.47 0 .341.259.508.76.508.775 0 1.459-.046 2.31-.046.425 0 1.96.057 2.659.057"/></g><defs><clipPath id="a"><path fill="#fff" d="M.346.136h89.348v8.647H.346z"/></clipPath></defs></svg>