
<svg xmlns="http://www.w3.org/2000/svg" width="23" height="23" fill="none"><g fill-rule="evenodd" clip-path="url(#a)" clip-rule="evenodd"><path fill="transparent" d="M2.556 23h17.888A2.556 2.556 0 0 0 23 20.444V2.556A2.556 2.556 0 0 0 20.444 0H2.556A2.556 2.556 0 0 0 0 2.556v17.888A2.556 2.556 0 0 0 2.556 23Z"/><path fill="#fff" d="M19.805 19.805h-3.413v-5.813c0-1.594-.605-2.484-1.867-2.484-1.372 0-2.09.927-2.09 2.484v5.813H9.147V8.731h3.29v1.492s.989-1.83 3.339-1.83c2.349 0 4.03 1.434 4.03 4.4v7.012ZM5.222 7.281a2.036 2.036 0 0 1-2.028-2.043c0-1.129.908-2.044 2.028-2.044S7.25 4.11 7.25 5.238A2.035 2.035 0 0 1 5.222 7.28ZM3.524 19.805h3.43V8.731h-3.43v11.074Z"/></g><defs><clipPath id="a"><path fill="transparent" d="M0 0h23v23H0z"/></clipPath></defs></svg>