<svg width="84" height="21" viewBox="0 0 84 21" fill="none" xmlns="http://www.w3.org/2000/svg">
<g clip-path="url(#clip0_2_456)">
<path d="M3.59117 12.4448L3.58426 20.6162L0 20.622V0.212918L5.11691 0.217589C8.17589 0.21992 8.82443 1.75642 8.82213 4.25192L8.81868 8.33759C8.81637 10.8325 7.81361 12.4495 5.29604 12.4472L3.5906 12.4454L3.59117 12.4448ZM3.59405 9.12683H4.27139C5.08351 9.128 5.19237 8.60767 5.19294 7.97708L5.19582 4.57683C5.19582 3.864 5.08869 3.3705 4.27657 3.36992H3.59923L3.59463 9.12742H3.59405L3.59405 9.12683ZM17.5918 0.227501L17.589 3.81908L13.4955 3.81559L13.4921 8.25767L16.5781 8.26L16.5753 11.9338L13.4892 11.9315L13.4852 16.9493L17.6005 16.9528L17.5976 20.6272L9.88191 20.6208L9.89861 0.220504L17.593 0.227506L17.5918 0.227501ZM26.3673 0.234503L26.3639 3.82609L22.2641 3.82259L22.2607 8.26467L25.3467 8.26759L25.3438 11.9414L22.2578 11.9385L22.2537 16.9569L26.3691 16.9604L26.3662 20.6342L18.6505 20.6278L18.6672 0.228089L26.3679 0.233338H26.3673L26.3673 0.234503ZM31.0177 20.6383L27.4167 20.6354L27.4334 0.235669L33.1183 0.240331C35.3116 0.242083 36.4203 1.477 36.4186 3.64291L36.4157 6.90608C36.4145 8.55108 35.4936 9.37358 34.8162 9.64658C35.4118 9.8665 36.3587 10.5257 36.3575 12.061L36.3517 18.998C36.3517 19.8753 36.513 20.2592 36.6484 20.5065V20.6436L33.0474 20.6407C32.885 20.4213 32.7237 19.9827 32.7243 19.0773L32.7289 13.1273C32.7289 12.1952 32.5129 11.921 31.782 11.9204H31.024L31.0171 20.6389V20.6383L31.0177 20.6383ZM31.0275 8.25242H31.7313C32.4346 8.25358 32.7329 7.97942 32.7335 7.01984L32.7364 4.54475C32.7364 3.66742 32.5745 3.39267 31.8436 3.39209H31.0315L31.0275 8.25242ZM42.4328 0.00117002C45.2482 0.00350105 46.3034 1.32067 46.3011 4.0075L46.2987 6.74917L42.8331 6.74625L42.8354 4.19592C42.8354 3.53792 42.7012 3.12608 42.0515 3.1255C41.4289 3.1255 41.2659 3.53617 41.2654 4.22217V4.68825C41.2642 5.64725 41.4802 6.30583 42.3729 7.32083L44.4286 9.65417C46.2406 11.7116 46.6184 13.1652 46.6173 14.8925V15.8515C46.6138 18.8953 45.205 20.8956 42.2266 20.8932H41.5234C38.7887 20.8903 37.4092 19.4087 37.411 16.6664L37.4144 12.9926L40.9607 12.9955L40.9578 16.2587C40.9578 17.0812 41.2285 17.4924 41.8776 17.493C42.4996 17.493 42.7715 17.0007 42.7721 16.0131V15.6293C42.7732 14.203 42.6655 13.6273 41.6109 12.4478L39.5276 10.115C38.0405 8.46883 37.6085 6.85067 37.6102 4.9315V4.05475C37.6131 1.44959 39.1849 -0.00233077 41.7025 2.80861e-06H42.4334L42.4328 0.00117002ZM51.2717 12.4448L51.2648 20.6162L47.6638 20.6132L47.6811 0.212918L52.7974 0.217002C55.857 0.219333 56.5049 1.75583 56.5032 4.25133L56.4998 8.337C56.4974 10.8319 55.4947 12.4489 52.9771 12.4466L51.2722 12.4454V12.4448L51.2717 12.4448ZM51.2746 9.12683H51.9513C52.7634 9.128 52.8723 8.60767 52.8729 7.97709L52.8757 4.57684C52.8757 3.864 52.7686 3.3705 51.9565 3.36992H51.2797L51.2751 9.12742L51.2746 9.12683ZM61.7595 17.1972L59.5939 17.1955L59.2656 20.6232L56.0707 20.6202L58.6326 0.221665L62.9103 0.225162L65.6277 20.6278L62.135 20.6249L61.7589 17.1967H61.7595L61.7595 17.1972ZM59.9487 13.6862L61.4105 13.6873L60.6577 5.94767L59.9487 13.6862ZM71.6535 11.9718L75.2274 11.9747L75.2234 16.2873C75.2216 18.7279 74.2448 21.0029 71.0499 21H70.319C66.854 20.9965 66.0706 18.7203 66.0724 16.17L66.0816 4.65384C66.0833 2.18634 67.1414 0.021005 70.3357 0.0233386H71.0666C74.5051 0.0268351 75.2343 2.19334 75.2326 4.52434L75.2297 8.2635L71.6558 8.26059L71.6587 4.6585C71.6587 3.89084 71.4156 3.479 70.7394 3.47842C70.0627 3.47842 69.8455 3.86167 69.845 4.65675L69.8358 16.1729C69.8352 16.9686 70.1059 17.4067 70.755 17.4072C71.4047 17.4072 71.6489 16.9149 71.6495 16.1747L71.6529 11.9718H71.6535ZM83.9983 0.234503L83.9954 3.82609L79.8951 3.82259L79.8916 8.26467L82.9777 8.26759L82.9748 11.9414L79.8887 11.9385L79.8847 16.9569L84 16.9604L83.9971 20.6342L76.2814 20.6278L76.2981 0.228089L83.9994 0.233338H83.9983V0.234503Z" fill="black"/>
</g>
<defs>
<clipPath id="clip0_2_456">
<rect width="84" height="21" fill="white"/>
</clipPath>
</defs>
</svg>
